<svg width="42" height="26" viewBox="0 0 42 26" fill="none" xmlns="http://www.w3.org/2000/svg">
<g clip-path="url(#clip0_1_3510)">
<path d="M41.297 9.4311V9.32329H28.6101C27.4907 8.76468 24.4205 8.31714 21.0196 8.33347C16.0673 8.35961 14.1688 8.98682 13.5011 9.32329H0.971313V9.4311V25.7387V25.853H41.2938V25.7387V9.4311H41.297Z" fill="#3E445A"/>
<path d="M13.1443 17.2843V21.5899C13.3898 21.567 13.6385 21.5474 13.884 21.5278V20.5609C13.9299 20.5543 13.9822 20.5511 14.0379 20.5445V16.7192L13.1443 17.2843Z" fill="white"/>
<path d="M27.962 16.8107V20.6328C28.0242 20.636 28.0831 20.6426 28.1453 20.6458V21.6062C28.5447 21.6389 28.764 21.6585 28.764 21.6585V17.2745L27.962 16.8107Z" fill="white"/>
<path d="M28.764 16.9119V12.8677C28.6625 12.7468 28.4694 12.6325 28.1912 12.528C28.1912 12.5345 28.1945 12.541 28.1945 12.5476C28.1945 12.6423 28.1159 12.7207 28.021 12.7207C28.0013 12.7207 27.9817 12.7174 27.9653 12.7109V16.3337L28.2468 16.5199C28.4007 16.6114 28.5643 16.7421 28.764 16.9119Z" fill="white"/>
<path d="M13.8906 16.386L14.0411 16.2716V12.7599C14.0182 12.773 13.9888 12.7795 13.9593 12.7795C13.8644 12.7795 13.7858 12.7011 13.7858 12.6064C13.7858 12.577 13.7924 12.5508 13.8055 12.528C13.2916 12.7174 13.1443 12.871 13.1443 12.871V16.8401C13.3178 16.6963 13.56 16.5264 13.8906 16.386Z" fill="white"/>
<path d="M19.6809 16.1965V20.3093C19.7791 20.3093 19.874 20.3093 19.9722 20.3093V21.2992C20.6039 21.2992 21.2193 21.3024 21.8118 21.3122V20.3289C21.9034 20.3322 21.9951 20.3322 22.0867 20.3355V16.1867C21.2455 16.1671 20.437 16.1704 19.6809 16.1965ZM21.4943 20.6752H20.3257V17.562H21.4943V20.6752Z" fill="white"/>
<path d="M21.9918 12.0935C21.8969 12.0935 21.8183 12.0151 21.8183 11.9203C21.8183 11.8746 21.838 11.8321 21.8674 11.8027C21.2488 11.7929 20.5942 11.7897 19.9101 11.7995C19.9395 11.8289 19.9559 11.8713 19.9559 11.9171C19.9559 12.0118 19.8773 12.0902 19.7824 12.0902C19.7464 12.0902 19.7137 12.0804 19.6842 12.0608V15.6477C20.4403 15.6248 21.2488 15.6183 22.0933 15.6412V12.0641C22.0605 12.0804 22.0278 12.0935 21.9918 12.0935ZM21.6088 15.3635H20.3258V12.9363H21.6088V15.3635Z" fill="white"/>
<path d="M18.7972 12.1033C18.7022 12.1033 18.6237 12.0249 18.6237 11.9301C18.6237 11.8909 18.6368 11.855 18.6597 11.8256C18.0345 11.8485 17.4813 11.8844 16.9871 11.9269C17.0198 11.9595 17.0395 12.002 17.0395 12.051C17.0395 12.149 16.9609 12.2241 16.866 12.2241C16.8202 12.2241 16.7776 12.2045 16.7449 12.1751V15.8404C17.3635 15.7783 18.0738 15.7195 18.8561 15.6803V12.0935C18.8364 12.1 18.8201 12.1033 18.7972 12.1033ZM17.5828 15.4778L17.5926 13.3022L18.3389 13.2793L18.3487 15.4092L17.5828 15.4778Z" fill="white"/>
<path d="M15.1181 15.8208L15.141 13.6452L15.9887 13.5014V12.2666C15.956 12.2993 15.9135 12.3222 15.8611 12.3222C15.7662 12.3222 15.6876 12.2438 15.6876 12.149C15.6876 12.1229 15.6941 12.1 15.7007 12.0804C15.4159 12.1229 15.1606 12.1686 14.9315 12.2176C14.9708 12.2503 14.9937 12.296 14.9937 12.3516C14.9937 12.4463 14.9151 12.5247 14.8202 12.5247C14.7744 12.5247 14.7318 12.5051 14.6991 12.4757V16.105C15.01 16.056 15.4454 15.994 15.9822 15.9286V15.6967L15.1181 15.8208Z" fill="white"/>
<path d="M16.7449 16.3925V20.3681C16.8071 20.3649 16.866 20.3616 16.9282 20.3616V21.358C17.4781 21.3384 18.0247 21.3253 18.5615 21.3155V20.3191C18.6564 20.3191 18.7546 20.3159 18.8528 20.3159V16.2325C18.0705 16.2717 17.3602 16.3305 16.7449 16.3925ZM18.3062 20.8124L17.573 20.8582V17.8822L18.3062 17.7907V20.8124Z" fill="white"/>
<path d="M15.1868 21.0411V18.0651L15.9888 17.9181V16.4774C15.4356 16.546 14.997 16.6114 14.7057 16.6571V20.4857C14.7581 20.4825 14.8104 20.4792 14.8661 20.4727V21.456C15.1803 21.4364 15.4978 21.4168 15.812 21.4037V20.9856L15.1868 21.0411Z" fill="white"/>
<path d="M24.9343 12.2176C24.8394 12.2176 24.7609 12.1392 24.7609 12.0445C24.7609 12.0053 24.7772 11.9661 24.8001 11.9367C24.2993 11.8942 23.756 11.8616 23.1734 11.8387C23.1897 11.8648 23.1995 11.8975 23.1995 11.9302C23.1995 12.0249 23.121 12.1033 23.0261 12.1033C22.9737 12.1033 22.9279 12.0804 22.8951 12.0412V15.6673C23.5891 15.7 24.3026 15.7522 25.0293 15.8306V12.1915C24.9998 12.2078 24.9671 12.2176 24.9343 12.2176ZM23.4647 15.4092L23.4745 13.2793L24.2208 13.3022L24.2339 15.4778L23.4647 15.4092Z" fill="white"/>
<path d="M27.0489 12.528C26.9539 12.528 26.8754 12.4496 26.8754 12.3548C26.8754 12.2928 26.9081 12.2405 26.9572 12.2078C26.6823 12.1556 26.3779 12.1098 26.0473 12.0674C26.0571 12.0902 26.0604 12.1131 26.0604 12.136C26.0604 12.2307 25.9818 12.3091 25.8869 12.3091C25.8574 12.3091 25.8312 12.3026 25.8051 12.2895V13.4982L26.6724 13.6452L26.6954 15.8208L25.8051 15.6902V15.9221C26.2469 15.9809 26.6888 16.0462 27.134 16.1246V12.5051C27.1111 12.5182 27.0816 12.528 27.0489 12.528Z" fill="white"/>
<path d="M22.8918 16.2194V20.3616C22.9835 20.3649 23.0784 20.3681 23.1733 20.3714V21.3481C23.7592 21.3645 24.3091 21.3873 24.823 21.4102V20.44C24.8885 20.4433 24.9572 20.4465 25.0227 20.4498V16.3827C24.2993 16.3043 23.5858 16.252 22.8918 16.2194ZM24.2437 20.8581L23.5105 20.8124V17.7907L24.2437 17.8821V20.8581Z" fill="white"/>
<path d="M25.8051 16.4774V17.9148L26.6266 18.0651V21.0411L26.0113 20.9888V21.4658C26.3419 21.4854 26.6463 21.5017 26.9212 21.5213V20.5609C26.99 20.5641 27.062 20.5707 27.134 20.5739V16.6865C26.6888 16.6049 26.2469 16.5362 25.8051 16.4774Z" fill="white"/>
<path d="M13.1444 11.8158C13.1444 11.8158 13.9005 11.0155 19.2685 10.7868C24.6365 10.5581 28.4105 11.3748 28.8917 11.806L29.0848 11.4271C29.0848 11.4271 27.7101 10.5352 22.869 10.398C18.0312 10.2608 14.015 10.6724 12.8923 11.4957L13.1444 11.8158Z" fill="white"/>
<path d="M16.9281 8.67972V8.19951L18.6236 7.6507H23.1537L25.0129 8.19951V8.70259C25.0129 8.70259 21 8.23218 16.9281 8.67972Z" fill="#3E445A"/>
<path d="M20.9019 0.137203V7.97412C20.9019 8.04925 20.964 8.11132 21.0393 8.11132C21.1146 8.11132 21.1768 8.04925 21.1768 7.97412V0.137203C21.1768 0.0620681 21.1146 0 21.0393 0C20.964 0 20.9019 0.0620681 20.9019 0.137203Z" fill="#3E445A"/>
<path d="M21.1505 0.274414C21.1505 0.274414 21.1505 0.623955 22.0506 0.457352C22.9508 0.294015 23.7396 0.457352 24.0702 0.878761L24.1618 2.74734C24.1618 2.74734 23.3403 2.05479 22.6758 2.21486C21.6284 2.46966 21.1898 2.17892 21.1898 2.17892C21.1898 2.17892 21.7004 1.83918 21.1505 0.274414Z" fill="#3E445A"/>
<path d="M28.764 22.1616C22.4271 21.469 15.1278 21.9917 13.1443 22.1518V22.4948C15.0787 22.338 21.8477 21.6487 28.7443 22.4883L28.764 22.1616Z" fill="white"/>
<path d="M33.6346 13.3479H32.4431V15.8437H33.6346V13.3479Z" fill="white"/>
<path d="M33.6346 17.905H32.4431V20.4008H33.6346V17.905Z" fill="white"/>
<path d="M30.5545 13.3479H29.363V15.8437H30.5545V13.3479Z" fill="white"/>
<path d="M30.5545 17.905H29.363V20.4008H30.5545V17.905Z" fill="white"/>
<path d="M39.8372 13.3479H38.6458V15.8437H39.8372V13.3479Z" fill="white"/>
<path d="M39.8372 17.905H38.6458V20.4008H39.8372V17.905Z" fill="white"/>
<path d="M36.7604 13.3479H35.569V15.8437H36.7604V13.3479Z" fill="white"/>
<path d="M36.7604 17.905H35.569V20.4008H36.7604V17.905Z" fill="white"/>
<path d="M31.412 8.11459H30.3286V9.40169H31.412V8.11459Z" fill="#3E445A"/>
<path d="M24.8885 25.2258V23.2461C24.8885 22.9489 24.6463 22.7071 24.3484 22.7071C24.0506 22.7071 23.8083 22.9489 23.8083 23.2461V25.2258H24.8885Z" fill="white"/>
<path d="M21.6088 25.2258V23.3474C21.6088 22.9162 21.2586 22.5699 20.8298 22.5699C20.3977 22.5699 20.0508 22.9195 20.0508 23.3474V25.2258H21.6088Z" fill="white"/>
<path d="M18.0083 25.2258V23.2461C18.0083 22.9489 17.766 22.7071 17.4682 22.7071C17.1703 22.7071 16.9281 22.9489 16.9281 23.2461V25.2258H18.0083Z" fill="white"/>
<path d="M37.1533 9.8035H35.173V10.2772H37.1533V9.8035Z" fill="white"/>
<path d="M40.2137 9.8035H38.2334V10.2772H40.2137V9.8035Z" fill="white"/>
<path d="M34.0469 9.8035H32.0667V10.2772H34.0469V9.8035Z" fill="white"/>
<path d="M31.0128 9.8035H29.0325V10.2772H31.0128V9.8035Z" fill="white"/>
<path d="M17.1376 25.9771L13.3734 23.2755L16.2047 25.8857L17.1376 25.9771Z" fill="white"/>
<path d="M24.8428 26L28.6037 23.2984L25.7887 25.9085L24.8428 26Z" fill="white"/>
<path d="M27.985 10.0289C28.1421 10.0648 28.273 10.0975 28.3745 10.1236V9.68916C28.2698 9.65649 28.1388 9.62382 27.985 9.58789V10.0289Z" fill="white"/>
<path d="M26.0571 9.70877C26.5645 9.77084 26.99 9.83617 27.3402 9.89824V9.46376C26.9671 9.40169 26.535 9.33636 26.0571 9.27756V9.70877Z" fill="white"/>
<path d="M23.2126 9.47682C23.3828 9.48662 23.5498 9.49315 23.7167 9.50295C24.2109 9.53235 24.6594 9.56502 25.0685 9.60096V9.16321C24.4793 9.10441 23.8509 9.04888 23.2094 9.00641V9.47682H23.2126Z" fill="white"/>
<path d="M19.91 9.40167C20.5679 9.39514 21.2259 9.40494 21.8838 9.42127V8.93126C21.2128 8.90186 20.545 8.88879 19.91 8.89206V9.40167Z" fill="white"/>
<path d="M14.5223 9.94397C14.9348 9.84596 15.3635 9.76429 15.8054 9.69896V9.22202C15.2883 9.29715 14.8628 9.37555 14.5223 9.45069V9.94397Z" fill="white"/>
<path d="M16.7678 9.09461V9.57155C17.3472 9.50949 17.9462 9.46375 18.5583 9.43762V8.93454C18.4666 8.94107 18.3717 8.94434 18.2833 8.95414C17.7236 8.99661 17.2228 9.04561 16.7678 9.09461Z" fill="white"/>
<path d="M13.511 10.2282C13.6452 10.1824 13.7827 10.1432 13.9234 10.1008V9.59116C13.7434 9.64016 13.6059 9.68262 13.511 9.71202V10.2282Z" fill="white"/>
<path d="M41.153 22.1485H28.7051V22.4915H41.153V22.1485Z" fill="white"/>
<path d="M41.5 11.4271H28.8361L28.8852 11.8223L41.5 11.8191V11.4271Z" fill="white"/>
<path d="M40.7177 8.59152H39.6343V9.47354H40.7177V8.59152Z" fill="#3E445A"/>
<path d="M9.55362 13.3479H8.36218V15.8437H9.55362V13.3479Z" fill="white"/>
<path d="M9.55362 17.905H8.36218V20.4008H9.55362V17.905Z" fill="white"/>
<path d="M12.6337 13.3479H11.4423V15.8437H12.6337V13.3479Z" fill="white"/>
<path d="M12.6337 17.905H11.4423V20.4008H12.6337V17.905Z" fill="white"/>
<path d="M3.35099 13.3479H2.15955V15.8437H3.35099V13.3479Z" fill="white"/>
<path d="M3.35099 17.905H2.15955V20.4008H3.35099V17.905Z" fill="white"/>
<path d="M6.43107 13.3479H5.23962V15.8437H6.43107V13.3479Z" fill="white"/>
<path d="M6.43107 17.905H5.23962V20.4008H6.43107V17.905Z" fill="white"/>
<path d="M11.6714 8.11459H10.588V9.40169H11.6714V8.11459Z" fill="#3E445A"/>
<path d="M6.82708 9.8035H4.8468V10.2772H6.82708V9.8035Z" fill="white"/>
<path d="M3.76666 9.8035H1.78638V10.2772H3.76666V9.8035Z" fill="white"/>
<path d="M9.93328 9.8035H7.953V10.2772H9.93328V9.8035Z" fill="white"/>
<path d="M12.9676 9.8035H10.9873V10.2772H12.9676V9.8035Z" fill="white"/>
<path d="M13.2982 22.1485H0.85022V22.4915H13.2982V22.1485Z" fill="white"/>
<path d="M0.5 11.4271H13.164L13.1149 11.8223L0.5 11.8191V11.4271Z" fill="white"/>
<path d="M2.36578 8.59152H1.28235V9.47354H2.36578V8.59152Z" fill="#3E445A"/>
</g>
<defs>
<clipPath id="clip0_1_3510">
<rect width="41" height="26" fill="white" transform="translate(0.5)"/>
</clipPath>
</defs>
</svg>
