<svg width="12" height="13" viewBox="0 0 12 13" fill="none" xmlns="http://www.w3.org/2000/svg">
<g clip-path="url(#clip0_37_342)">
<path d="M2.48438 12.4221H9.51562C10.0972 12.4221 10.5703 11.9489 10.5703 11.3674V3.93768H8.10938C7.5278 3.93768 7.05469 3.46457 7.05469 2.883V0.422058H2.48438C1.9028 0.422058 1.42969 0.895167 1.42969 1.47675V11.3674C1.42969 11.9489 1.9028 12.4221 2.48438 12.4221ZM3.89062 5.36737H8.10938C8.3037 5.36737 8.46094 5.52461 8.46094 5.71893C8.46094 5.91325 8.3037 6.0705 8.10938 6.0705H3.89062C3.6963 6.0705 3.53906 5.91325 3.53906 5.71893C3.53906 5.52461 3.6963 5.36737 3.89062 5.36737ZM3.89062 6.77362H8.10938C8.3037 6.77362 8.46094 6.93086 8.46094 7.12518C8.46094 7.3195 8.3037 7.47675 8.10938 7.47675H3.89062C3.6963 7.47675 3.53906 7.3195 3.53906 7.12518C3.53906 6.93086 3.6963 6.77362 3.89062 6.77362ZM3.89062 8.17987H8.10938C8.3037 8.17987 8.46094 8.33711 8.46094 8.53143C8.46094 8.72575 8.3037 8.883 8.10938 8.883H3.89062C3.6963 8.883 3.53906 8.72575 3.53906 8.53143C3.53906 8.33711 3.6963 8.17987 3.89062 8.17987ZM3.89062 9.58612H6.70312C6.89745 9.58612 7.05469 9.74336 7.05469 9.93768C7.05469 10.132 6.89745 10.2892 6.70312 10.2892H3.89062C3.6963 10.2892 3.53906 10.132 3.53906 9.93768C3.53906 9.74336 3.6963 9.58612 3.89062 9.58612Z" fill="#0064BC"/>
<path d="M8.10938 3.23456H10.3643L7.75781 0.628052V2.883C7.75781 3.07697 7.91541 3.23456 8.10938 3.23456Z" fill="#0064BC"/>
</g>
<defs>
<clipPath id="clip0_37_342">
<rect width="12" height="12" fill="white" transform="translate(0 0.422058)"/>
</clipPath>
</defs>
</svg>
