<svg width="12" height="13" viewBox="0 0 12 13" fill="none" xmlns="http://www.w3.org/2000/svg">
<path d="M6 1.17206C4.07812 2.04065 2.84484 2.44846 0.75 2.67206C0.75 4.49057 0.873516 5.79768 1.34273 6.99651C1.72641 7.97408 2.29481 8.86858 3.01688 9.63112C4.17937 10.8653 5.45836 11.5155 6 11.6721C6.54164 11.5155 7.82062 10.8653 8.98312 9.63112C9.70519 8.86858 10.2736 7.97408 10.6573 6.99651C11.1265 5.79768 11.25 4.49057 11.25 2.67206C9.15516 2.44846 7.92188 2.04065 6 1.17206ZM9.78445 6.65479C9.44421 7.52064 8.94043 8.31288 8.30062 8.98823C7.40625 9.93768 6.48398 10.4606 6 10.6727V2.19862C6.9082 2.59706 7.61086 2.8619 8.29523 3.06323C8.95278 3.25556 9.62324 3.40061 10.3015 3.49729C10.2612 4.9087 10.1055 5.83378 9.78445 6.65479Z" fill="#0064BC"/>
</svg>
